<?xml version="1.0" encoding="utf-8"?>
<!-- Generator: Adobe Illustrator 26.3.0, SVG Export Plug-In . SVG Version: 6.00 Build 0)  -->
<svg version="1.1" id="Capa_1" xmlns="http://www.w3.org/2000/svg" xmlns:xlink="http://www.w3.org/1999/xlink" x="0px" y="0px"
	 viewBox="0 0 1280 160.5" style="enable-background:new 0 0 1280 160.5;" xml:space="preserve">
<style type="text/css">
	.st0{fill:#E9500E;}
	.st1{fill:#FFFFFF;}
</style>
<g>
	<path class="st0" d="M48.2,129v22.7H9V10.8h39.2v22.7H31.7v95.4L48.2,129L48.2,129z"/>
	<path class="st1" d="M148.7,10.8h26.8l-44.8,71.7v58.8H108V82.5L63.2,10.8H90l29.4,46.9L148.7,10.8z"/>
	<path class="st1" d="M213.6,143.7c-8.6,0-16.4-2.2-23.4-6.6c-7.1-4.4-12.7-10.3-16.9-17.8s-6.3-15.7-6.3-24.7
		c0-6.8,1.2-13.1,3.6-19.1c2.4-5.9,5.8-11.2,10-15.7c4.3-4.5,9.2-8,14.9-10.6c5.7-2.5,11.7-3.8,18.1-3.8c7.3,0,13.9,1.5,20,4.6
		s11.2,7.3,15.4,12.6c4.2,5.3,7.3,11.4,9.2,18.3c1.9,6.8,2.4,14,1.3,21.4h-68.1c0.9,3.5,2.3,6.6,4.3,9.4c2,2.8,4.5,5,7.5,6.6
		s6.5,2.5,10.3,2.6c4,0.1,7.6-0.9,10.9-2.8s6-4.6,8.2-8l23.2,5.4c-3.8,8.3-9.4,15-17,20.3C231.3,141.1,222.9,143.7,213.6,143.7z
		 M190.6,85.3h45.9c-0.7-3.7-2.1-7.1-4.3-10.1s-4.9-5.4-8.2-7.2c-3.2-1.8-6.7-2.7-10.4-2.7s-7.2,0.9-10.3,2.7
		c-3.2,1.8-5.9,4.2-8.1,7.2C193,78.2,191.4,81.6,190.6,85.3z"/>
	<path class="st1" d="M331.5,71.2c-1.7-1.1-3.5-2-5.5-2.7s-4.1-1-6.5-1c-4.5,0-8.4,1.2-11.7,3.5c-3.3,2.4-5.8,5.5-7.5,9.5
		c-1.7,3.9-2.6,8.3-2.6,13.1v47.7h-22.9V48.1h22.7v11c3.1-4.1,6.8-7.4,11.1-9.8c4.3-2.4,9.2-3.6,14.7-3.6c2.1,0,4.1,0.1,6.1,0.2
		s3.8,0.5,5.6,1L331.5,71.2z"/>
	<path class="st1" d="M414.4,48.1h22.7v93.2h-22.8l-0.9-11.6c-2.6,4.2-6,7.5-10.2,10.1s-9.1,3.9-14.8,3.9c-6.9,0-13.4-1.3-19.4-3.9
		c-6-2.6-11.3-6.2-15.9-10.8s-8.2-9.9-10.7-15.9s-3.8-12.5-3.8-19.4c0-6.6,1.2-12.9,3.6-18.7c2.4-5.8,5.8-11,10.3-15.4
		c4.4-4.4,9.5-7.9,15.3-10.3c5.8-2.5,12-3.7,18.6-3.7c6.2,0,11.8,1.4,16.6,4.1c4.9,2.7,9,6.2,12.4,10.4L414.4,48.1z M389.1,121.8
		c5,0,9.3-1.3,13-3.8s6.4-5.9,8.3-10.2s2.7-9,2.3-14.1c-0.4-4.8-1.9-9.2-4.3-13.2c-2.4-3.9-5.5-7.1-9.3-9.5s-8-3.5-12.8-3.5
		c-4.9,0-9.3,1.3-13.2,3.8c-3.9,2.5-6.9,5.9-9,10.2c-2.1,4.3-3,9-2.5,14.2c0.5,4.8,2,9.2,4.7,13.1c2.6,3.9,5.9,7.1,9.9,9.5
		C380.2,120.6,384.5,121.8,389.1,121.8z"/>
	<path class="st1" d="M471,34.2c-3.3,0-6.1-1.1-8.4-3.3c-2.3-2.2-3.4-5-3.4-8.3s1.1-6.1,3.4-8.3c2.3-2.2,5.1-3.4,8.4-3.4
		s6.1,1.1,8.3,3.4c2.3,2.2,3.4,5,3.4,8.3c0,3.4-1.1,6.1-3.4,8.3C477.1,33.1,474.3,34.2,471,34.2z M459.5,48.1h22.7v93.2h-22.7V48.1z
		"/>
	<path class="st1" d="M558.1,141.3V10.8h22.7v107.7h54.3v22.7L558.1,141.3L558.1,141.3z"/>
	<path class="st1" d="M689.1,143.7c-8.6,0-16.4-2.2-23.4-6.6c-7.1-4.4-12.7-10.3-16.9-17.8c-4.2-7.4-6.3-15.6-6.3-24.7
		c0-6.8,1.2-13.2,3.6-19.2c2.4-5.9,5.8-11.2,10-15.7c4.3-4.5,9.2-8,14.9-10.6c5.7-2.5,11.7-3.8,18.1-3.8c8.6,0,16.4,2.2,23.4,6.6
		s12.7,10.3,16.9,17.8s6.3,15.7,6.3,24.8c0,6.8-1.2,13.1-3.6,19c-2.4,5.9-5.8,11.1-10,15.6c-4.3,4.5-9.2,8-14.8,10.6
		C701.6,142.4,695.5,143.7,689.1,143.7z M689.1,120.9c4.5,0,8.6-1.2,12.2-3.6c3.6-2.4,6.4-5.6,8.5-9.6s3.1-8.3,3.1-13
		c0-4.8-1.1-9.3-3.2-13.3c-2.1-4-5-7.2-8.7-9.6c-3.6-2.4-7.6-3.6-12-3.6c-4.5,0-8.5,1.2-12.1,3.6s-6.5,5.7-8.6,9.7
		c-2.1,4-3.2,8.4-3.2,13.1c0,4.9,1.1,9.4,3.3,13.3c2.2,4,5.1,7.1,8.7,9.5C680.8,119.8,684.8,120.9,689.1,120.9z"/>
	<path class="st1" d="M807,71.2c-1.7-1.1-3.5-2-5.5-2.7s-4.1-1-6.5-1c-4.5,0-8.4,1.2-11.7,3.5c-3.3,2.4-5.8,5.5-7.5,9.5
		c-1.7,3.9-2.6,8.3-2.6,13.1v47.7h-22.9V48.1H773v11c3.1-4.1,6.8-7.4,11.1-9.8s9.2-3.6,14.7-3.6c2.1,0,4.1,0.1,6.1,0.2
		s3.8,0.5,5.6,1L807,71.2z"/>
	<path class="st1" d="M859.5,143.7c-8.6,0-16.4-2.2-23.4-6.6c-7.1-4.4-12.7-10.3-16.9-17.8s-6.3-15.7-6.3-24.7
		c0-6.8,1.2-13.1,3.6-19.1c2.4-5.9,5.8-11.2,10-15.7c4.3-4.5,9.2-8,14.9-10.6c5.7-2.5,11.7-3.8,18.1-3.8c7.3,0,13.9,1.5,20,4.6
		s11.2,7.3,15.4,12.6c4.2,5.3,7.3,11.4,9.2,18.3c1.9,6.8,2.4,14,1.3,21.4h-68.1c0.9,3.5,2.3,6.6,4.3,9.4c2,2.8,4.5,5,7.5,6.6
		s6.5,2.5,10.3,2.6c4,0.1,7.6-0.9,10.9-2.8c3.3-2,6-4.6,8.2-8l23.2,5.4c-3.8,8.3-9.4,15-17,20.3
		C877.3,141.1,868.9,143.7,859.5,143.7z M836.6,85.3h45.9c-0.7-3.7-2.1-7.1-4.3-10.1s-4.9-5.4-8.2-7.2c-3.2-1.8-6.7-2.7-10.4-2.7
		s-7.2,0.9-10.3,2.7c-3.2,1.8-5.9,4.2-8.1,7.2C838.9,78.2,837.4,81.6,836.6,85.3z"/>
	<path class="st1" d="M1009.7,93.1v48.2H987V93.5c0-4.8-1-9.1-3-13.1c-2-3.9-4.7-7.1-8.2-9.5s-7.6-3.5-12.2-3.5
		c-4.5,0-8.4,1.2-11.6,3.5c-3.3,2.4-5.8,5.5-7.6,9.5c-1.8,3.9-2.7,8.3-2.7,13.1v47.8H919V48.1h22.7v11c3.1-4.2,6.8-7.5,11.1-9.9
		c4.3-2.5,9.2-3.7,14.7-3.7c8.6,0,16,2.2,22.3,6.5s11.2,10.1,14.6,17.3C1007.9,76.4,1009.6,84.4,1009.7,93.1z"/>
	<path class="st1" d="M1109.3,70.8l-46.8,47.7h46.8v22.7h-79.6v-22.7l46.9-47.7h-46.9V48.1h79.6V70.8z"/>
	<path class="st1" d="M1170.2,143.7c-8.6,0-16.4-2.2-23.4-6.6c-7.1-4.4-12.7-10.3-16.9-17.8c-4.2-7.4-6.3-15.6-6.3-24.7
		c0-6.8,1.2-13.2,3.6-19.2c2.4-5.9,5.8-11.2,10-15.7c4.3-4.5,9.2-8,14.9-10.6c5.7-2.5,11.7-3.8,18.1-3.8c8.6,0,16.4,2.2,23.4,6.6
		s12.7,10.3,16.9,17.8s6.3,15.7,6.3,24.8c0,6.8-1.2,13.1-3.6,19s-5.8,11.1-10,15.6c-4.3,4.5-9.2,8-14.8,10.6
		S1176.6,143.7,1170.2,143.7z M1170.2,120.9c4.5,0,8.6-1.2,12.2-3.6c3.6-2.4,6.4-5.6,8.5-9.6s3.1-8.3,3.1-13c0-4.8-1.1-9.3-3.2-13.3
		s-5-7.2-8.7-9.6c-3.6-2.4-7.6-3.6-12-3.6c-4.5,0-8.5,1.2-12.1,3.6s-6.5,5.7-8.6,9.7c-2.1,4-3.2,8.4-3.2,13.1
		c0,4.9,1.1,9.4,3.3,13.3c2.2,4,5.1,7.1,8.7,9.5C1161.9,119.8,1165.9,120.9,1170.2,120.9z"/>
	<path class="st0" d="M1231.7,151.7V129h16.6V33.5h-16.6V10.8h39.3v140.9L1231.7,151.7L1231.7,151.7z"/>
</g>
</svg>
